# OBJ written from C:\Users\space\Desktop\DESKTOP\Christian Files\Porsche Arrow\arrow-soloTriangles-exploded2.obj
# Units	meters

o Mesh
v 0 -0.00104776 -0.301752
v 0 0.0366712 0.141446
v -0.299949 -0.00104776 0.301752
v 0 -0.00104776 -0.301752
v 0.299949 -0.00104776 0.301752
v 0 0.0366712 0.141446
v 0 0.0366712 0.141446
v -0.290227 -0.0366712 0.291274
v -0.299949 -0.00104776 0.301752
v 0 -0.0366712 0.141446
v 0 0.0366712 0.141446
v -0.290227 -0.0366712 0.291274
v 0.290227 -0.0366712 0.291274
v 0 -0.0366712 0.141446
v 0 0.0366712 0.141446
v 0.290227 -0.0366712 0.291274
v 0.299949 -0.00104776 0.301752
v 0 0.0366712 0.141446
v 0 -0.00104776 -0.301752
v -0.290227 -0.0366712 0.291274
v -0.299949 -0.00104776 0.301752
v 0.290227 -0.0366712 0.291274
v 0 -0.00104776 -0.301752
v 0.299949 -0.00104776 0.301752
v 0 -0.0366712 -0.301752
v 0.290227 -0.0366712 0.291274
v 0 -0.00104776 -0.301752
v 0 -0.0366712 -0.301752
v 0.290227 -0.0366712 0.291274
v 0 -0.0366712 0.141446
v 0 -0.0366712 -0.301752
v 0 -0.0366712 0.141446
v -0.290227 -0.0366712 0.291274
v 0 -0.0366712 -0.301752
v 0 -0.00104776 -0.301752
v -0.290227 -0.0366712 0.291274
vn -0.168188 0.982204 -0.0835918
vn 0.168188 0.982204 -0.0835918
vn 0.47135 0 0.881946
vn -0.47135 0 0.881946
vn -0.895495 0 -0.445072
vn 0.895495 0 -0.445072
vn 0 -1 0
vt 0.339613 0.783737
vt 0.0426852 0.227262
vt 0.339231 0.361257
vt 0.660933 0.226726
vt 0.365013 0.783737
vt 0.364631 0.361257
vt 0.0697332 0.182003
vt 0.343993 0.342207
vt 0.0474477 0.208212
vt 0.343933 0.21717
vt 0.343993 0.283469
vt 0.0697332 0.123265
vt 0.637012 0.122771
vt 0.363043 0.283469
vt 0.362983 0.21717
vt 0.617962 0.173571
vt 0.640295 0.199739
vt 0.343993 0.334269
vt 0.0032469 0.254379
vt 0.0268102 0.227262
vt 0.323738 0.783737
vt 0.705182 0.2538
vt 0.38565 0.783737
vt 0.68157 0.226726
vt 0.437312 0.799389
vt 0.407875 0.783737
vt 0.727407 0.2538
vt 0.711568 0.830143
vt 0.711568 0.411614
vt 0.985641 0.971631
vt 0.702043 0.830143
vt 0.427971 0.971631
vt 0.702043 0.411614
vt 0.0032469 0.278192
vt 0.323738 0.807549
vt 0.294328 0.823254
mtllib arrow-soloTriangles-exploded2.mtl
usemtl M_red
g Default
f 1/1/1 3/2/1 2/3/1
f 5/4/2 4/5/2 6/6/2
f 8/7/3 7/8/3 9/9/3
f 10/10/3 11/11/3 12/12/3
f 13/13/4 15/14/4 14/15/4
f 16/16/4 17/17/4 18/18/4
f 20/19/5 21/20/5 19/21/5
f 22/22/6 23/23/6 24/24/6
f 25/25/6 27/26/6 26/27/6
f 30/28/7 28/29/7 29/30/7
f 32/31/7 33/32/7 31/33/7
f 36/34/5 35/35/5 34/36/5
