# Blender v2.79 (sub 0) OBJ File: ''
# www.blender.org
mtllib arrow_new.mtl
o Default
v 0.000000 0.286073 0.014379
v -0.299949 -0.268591 -0.001141
v 0.000000 -0.118327 0.047916
v 0.299949 -0.268591 -0.001141
v 0.000000 0.286073 0.014379
v 0.000000 -0.118327 0.047916
v -0.290227 -0.259254 -0.036761
v 0.000000 -0.118327 0.047916
v -0.299949 -0.268591 -0.001141
v 0.000000 -0.133183 -0.026844
v 0.000000 -0.118327 0.047916
v -0.290227 -0.259254 -0.036761
v 0.290227 -0.259254 -0.036761
v 0.000000 -0.118327 0.047916
v 0.000000 -0.133183 -0.026844
v 0.290227 -0.259254 -0.036761
v 0.299949 -0.268591 -0.001141
v 0.000000 -0.118327 0.047916
v -0.290227 -0.259254 -0.036761
v -0.299949 -0.268591 -0.001141
v 0.000000 0.286073 0.014379
v 0.290227 -0.259254 -0.036761
v 0.000000 0.286073 0.014379
v 0.299949 -0.268591 -0.001141
v 0.000000 0.220109 -0.040116
v 0.000000 0.286073 0.014379
v 0.290227 -0.259254 -0.036761
v 0.000000 -0.133183 -0.026844
v 0.000000 0.220109 -0.040116
v 0.290227 -0.259254 -0.036761
v 0.000000 -0.133183 -0.026844
v -0.290227 -0.259254 -0.036761
v 0.000000 0.220109 -0.040116
v -0.290227 -0.259254 -0.036761
v 0.000000 0.286073 0.014379
v 0.000000 0.220109 -0.040116
vt 0.339613 0.783737
vt 0.042685 0.227262
vt 0.339231 0.361257
vt 0.660933 0.226726
vt 0.365013 0.783737
vt 0.364631 0.361257
vt 0.069733 0.182003
vt 0.343993 0.342207
vt 0.047448 0.208212
vt 0.343933 0.217170
vt 0.343993 0.283469
vt 0.069733 0.123265
vt 0.637012 0.122771
vt 0.363043 0.283469
vt 0.362983 0.217170
vt 0.617962 0.173571
vt 0.640295 0.199739
vt 0.343993 0.334269
vt 0.003247 0.254379
vt 0.026810 0.227262
vt 0.323738 0.783737
vt 0.705182 0.253800
vt 0.385650 0.783737
vt 0.681570 0.226726
vt 0.437312 0.799389
vt 0.407875 0.783737
vt 0.727407 0.253800
vt 0.711568 0.830143
vt 0.711568 0.411614
vt 0.985641 0.971631
vt 0.702043 0.830143
vt 0.427971 0.971631
vt 0.702043 0.411614
vt 0.003247 0.278192
vt 0.323738 0.807549
vt 0.294328 0.823254
vn -0.2003 0.0810 0.9764
vn 0.2003 0.0810 0.9764
vn 0.4501 -0.8928 0.0188
vn 0.4454 -0.8952 0.0182
vn 0.4472 -0.8943 0.0184
vn 0.3998 -0.8989 0.1791
vn 0.3997 -0.8988 0.1802
vn -0.3997 -0.8988 0.1801
vn -0.3998 -0.8989 0.1791
vn -0.4501 -0.8928 0.0188
vn -0.4472 -0.8943 0.0184
vn -0.4453 -0.8952 0.0182
vn -0.8777 0.4793 -0.0010
vn -0.8788 0.4771 -0.0010
vn -0.8797 0.4756 -0.0010
vn 0.8777 0.4793 -0.0010
vn 0.8797 0.4756 -0.0010
vn 0.8788 0.4771 -0.0010
vn 0.7236 0.4407 -0.5312
vn 0.7236 0.4408 -0.5312
vn 0.7245 0.4421 -0.5288
vn -0.0504 -0.0375 -0.9980
vn 0.0504 -0.0375 -0.9980
vn -0.7245 0.4421 -0.5289
vn -0.7236 0.4408 -0.5312
vn -0.7236 0.4407 -0.5312
usemtl None
s 1
f 1/1/1 2/2/1 3/3/1
f 4/4/2 5/5/2 6/6/2
f 7/7/3 8/8/4 9/9/5
f 10/10/6 11/11/6 12/12/7
f 13/13/8 14/14/9 15/15/9
f 16/16/10 17/17/11 18/18/12
f 19/19/13 20/20/14 21/21/15
f 22/22/16 23/23/17 24/24/18
f 25/25/19 26/26/20 27/27/21
f 28/28/22 29/29/22 30/30/22
f 31/31/23 32/32/23 33/33/23
f 34/34/24 35/35/25 36/36/26
