# Blender v2.79 (sub 0) OBJ File: ''
# www.blender.org
mtllib arrow_modified_mtl.mtl
o Default
v 0.000000 0.301752 -0.000955
v -0.299949 -0.301752 -0.001141
v 0.000000 -0.141457 0.036628
v 0.299949 -0.301752 -0.001141
v 0.000000 0.301752 -0.000955
v 0.000000 -0.141457 0.036628
v -0.290227 -0.291263 -0.036761
v 0.000000 -0.141457 0.036628
v -0.299949 -0.301752 -0.001141
v 0.000000 -0.141435 -0.036715
v 0.000000 -0.141457 0.036628
v -0.290227 -0.291263 -0.036761
v 0.290227 -0.291263 -0.036761
v 0.000000 -0.141457 0.036628
v 0.000000 -0.141435 -0.036715
v 0.290227 -0.291263 -0.036761
v 0.299949 -0.301752 -0.001141
v 0.000000 -0.141457 0.036628
v -0.290227 -0.291263 -0.036761
v -0.299949 -0.301752 -0.001141
v 0.000000 0.301752 -0.000955
v 0.290227 -0.291263 -0.036761
v 0.000000 0.301752 -0.000955
v 0.299949 -0.301752 -0.001141
v 0.000000 0.301763 -0.036578
v 0.000000 0.301752 -0.000955
v 0.290227 -0.291263 -0.036761
v 0.000000 -0.141435 -0.036715
v 0.000000 0.301763 -0.036578
v 0.290227 -0.291263 -0.036761
v 0.000000 -0.141435 -0.036715
v -0.290227 -0.291263 -0.036761
v 0.000000 0.301763 -0.036578
v -0.290227 -0.291263 -0.036761
v 0.000000 0.301752 -0.000955
v 0.000000 0.301763 -0.036578
vt 0.339613 0.783737
vt 0.042685 0.227262
vt 0.339231 0.361257
vt 0.660933 0.226726
vt 0.365013 0.783737
vt 0.364631 0.361257
vt 0.069733 0.182003
vt 0.343993 0.342207
vt 0.047448 0.208212
vt 0.343933 0.217170
vt 0.343993 0.283469
vt 0.069733 0.123265
vt 0.637012 0.122771
vt 0.363043 0.283469
vt 0.362983 0.217170
vt 0.617962 0.173571
vt 0.640295 0.199739
vt 0.343993 0.334269
vt 0.003247 0.254379
vt 0.026810 0.227262
vt 0.323738 0.783737
vt 0.705182 0.253800
vt 0.385650 0.783737
vt 0.681570 0.226726
vt 0.437312 0.799389
vt 0.407875 0.783737
vt 0.727407 0.253800
vt 0.711568 0.830143
vt 0.711568 0.411614
vt 0.985641 0.971631
vt 0.702043 0.830143
vt 0.427971 0.971631
vt 0.702043 0.411614
vt 0.003247 0.278192
vt 0.323738 0.807549
vt 0.294328 0.823254
vn -0.1682 0.0833 0.9822
vn 0.1682 0.0833 0.9822
vn 0.4713 -0.8819 -0.0003
vn 0.4713 -0.8820 -0.0003
vn -0.4713 -0.8820 -0.0003
vn -0.4713 -0.8819 -0.0003
vn -0.8955 0.4451 0.0001
vn 0.8955 0.4451 0.0001
vn 0.0000 0.0003 -1.0000
usemtl M_red
s 1
f 1/1/1 2/2/1 3/3/1
f 4/4/2 5/5/2 6/6/2
f 7/7/3 8/8/4 9/9/3
f 10/10/4 11/11/4 12/12/4
f 13/13/5 14/14/5 15/15/5
f 16/16/6 17/17/6 18/18/5
f 19/19/7 20/20/7 21/21/7
f 22/22/8 23/23/8 24/24/8
f 25/25/8 26/26/8 27/27/8
f 28/28/9 29/29/9 30/30/9
f 31/31/9 32/32/9 33/33/9
f 34/34/7 35/35/7 36/36/7
